<svg width="27" height="27" viewBox="0 0 27 27" fill="none" xmlns="http://www.w3.org/2000/svg">
<path fill-rule="evenodd" clip-rule="evenodd" d="M0 14.1136C0 6.31834 6.31781 0 14.1136 0C14.4525 0 14.7273 0.274734 14.7273 0.613636V14.1136C14.7273 14.4525 14.4525 14.7273 14.1136 14.7273H0.613636C0.274734 14.7273 0 14.4525 0 14.1136ZM16.4651 3.81762C16.1303 3.76475 15.9018 3.45053 15.9547 3.11577C16.0075 2.78102 16.3217 2.5525 16.6565 2.60537C22.5809 3.54095 27 8.6669 27 14.7273C27 21.5058 21.5062 27 14.7273 27C8.67329 27 3.5503 22.5897 2.60789 16.6726C2.55459 16.3379 2.78269 16.0234 3.11737 15.9701C3.45206 15.9168 3.76659 16.1449 3.81989 16.4795C4.66776 21.8031 9.27885 25.7727 14.7273 25.7727C20.8284 25.7727 25.7727 20.828 25.7727 14.7273C25.7727 9.2731 21.7952 4.65935 16.4651 3.81762ZM13.5 1.24165V13.5H1.24165C1.55233 6.87085 6.87044 1.55234 13.5 1.24165Z" fill="#78179A"/>
</svg>
