<svg width="30" height="26" viewBox="0 0 30 26" fill="none" xmlns="http://www.w3.org/2000/svg">
<path fill-rule="evenodd" clip-rule="evenodd" d="M14.3266 4.10529C11.7691 4.10529 8.78327 4.22493 5.36841 4.46405C5.39344 4.20991 5.42547 3.89827 5.46442 3.53049C5.56856 2.54714 6.32652 1.78167 7.26712 1.70993C10.2533 1.48218 12.8259 1.36842 14.9838 1.36842C17.0185 1.36842 19.1729 1.46957 21.447 1.67201C22.3781 1.7549 23.1233 2.51693 23.2262 3.49128C23.2665 3.87334 23.2998 4.19846 23.326 4.46537C19.8884 4.22537 16.8889 4.10529 14.3266 4.10529ZM24.5226 3.34061C24.5774 3.85913 24.6193 4.2741 24.6487 4.58846C26.6338 4.95932 28.1768 6.66987 28.3865 8.81459C28.4818 9.78819 28.549 10.524 28.5885 11.0281C29.4038 11.2757 30 12.0648 30 13V17.1053C30 18.04 29.4044 18.8289 28.5896 19.0768C28.5507 19.5747 28.4833 20.3117 28.387 21.294C28.1601 23.6084 26.3806 25.417 24.1685 25.5815C20.4172 25.8604 17.1581 26 14.39 26C11.5984 26 8.28995 25.858 4.46337 25.5743C2.22645 25.4084 0.435582 23.5626 0.237807 21.2192C0.0791923 19.3397 0 17.2843 0 15.0527C0 12.8203 0.0792399 10.7644 0.237951 8.88446C0.423316 6.68879 2.00717 4.92996 4.04619 4.58054C4.07421 4.28194 4.11475 3.88263 4.16805 3.37939C4.34161 1.74047 5.60489 0.464671 7.17254 0.345108C10.1881 0.115114 12.7914 0 14.9838 0C17.0564 0 19.2475 0.102874 21.5573 0.30849C23.1091 0.446632 24.3511 1.71669 24.5226 3.34061ZM24.083 5.90033C24.0082 5.90485 23.9356 5.89594 23.8673 5.8756C20.1925 5.6076 17.0119 5.47371 14.3266 5.47371C11.5788 5.47371 8.32098 5.61392 4.55437 5.89456C2.95706 6.01357 1.67849 7.33175 1.53721 9.00519C1.38205 10.8431 1.30435 12.8591 1.30435 15.0527C1.30435 17.2456 1.382 19.261 1.53707 21.0985C1.67834 22.7724 2.95753 24.0908 4.55533 24.2093C8.35327 24.4909 11.6319 24.6316 14.39 24.6316C17.1246 24.6316 20.3538 24.4933 24.0763 24.2165C25.6564 24.099 26.9274 22.8071 27.0895 21.154C27.1732 20.3 27.2348 19.6331 27.2741 19.1579H22.8261C21.0251 19.1579 19.5652 17.6262 19.5652 15.7368V14.3684C19.5652 12.479 21.0251 10.9474 22.8261 10.9474H27.273C27.2333 10.4677 27.1719 9.80192 27.089 8.95425C26.9292 7.32013 25.6858 6.03889 24.1314 5.89554C24.1155 5.89774 24.0993 5.89935 24.083 5.90033ZM22.8262 12.3159C21.7456 12.3159 20.8696 13.2349 20.8696 14.3685V15.7369C20.8696 16.8706 21.7456 17.7895 22.8262 17.7895H28.0435C28.4037 17.7895 28.6957 17.4832 28.6957 17.1053V13.0001C28.6957 12.6222 28.4037 12.3159 28.0435 12.3159H22.8262ZM23.4782 16.421C22.7578 16.421 22.1738 15.8083 22.1738 15.0526C22.1738 14.2968 22.7578 13.6841 23.4782 13.6841C24.1985 13.6841 24.7825 14.2968 24.7825 15.0526C24.7825 15.8083 24.1985 16.421 23.4782 16.421Z" fill="#292F48"/>
</svg>
