<svg width="27" height="27" viewBox="0 0 27 28" fill="none" xmlns="http://www.w3.org/2000/svg">
<path fill-rule="evenodd" clip-rule="evenodd" d="M12.7825 1.68542C12.7964 1.67153 12.8105 1.65813 12.825 1.64521V18.254C12.825 19.1548 14.175 19.1548 14.175 18.254V1.6476C14.1882 1.65947 14.2011 1.67174 14.2138 1.68442L20.4483 7.90893C20.7122 8.17244 21.1396 8.1719 21.4029 7.90772C21.6662 7.64354 21.6656 7.21575 21.4017 6.95224L15.1673 0.727815C14.2443 -0.193978 12.7497 -0.193016 11.8278 0.730046L5.59769 6.9662C5.33409 7.23006 5.3341 7.65784 5.59771 7.92168C5.86132 8.18553 6.28871 8.18552 6.55231 7.92166L12.7825 1.68542ZM26.325 14.8758C25.9522 14.8758 25.65 15.1783 25.65 15.5515C25.65 17.8919 25.5561 20.123 25.3685 22.2446C25.2232 23.8867 23.915 25.184 22.2732 25.3142C19.1485 25.562 16.2386 25.6859 13.5437 25.6859C10.8381 25.6859 7.89956 25.561 4.72837 25.3113C3.08569 25.1819 1.77649 23.8842 1.63126 22.2413C1.44379 20.1207 1.35 17.8907 1.35 15.5515C1.35 15.1783 1.04779 14.8758 0.675 14.8758C0.302208 14.8758 0 15.1783 0 15.5515C0 17.9296 0.0954619 20.1992 0.286511 22.3604C0.489834 24.6604 2.32272 26.4772 4.62246 26.6584C7.8276 26.9108 10.8012 27.0371 13.5437 27.0371C16.2756 27.0371 19.2209 26.9118 22.3798 26.6613C24.6784 26.479 26.5099 24.6627 26.7132 22.3637C26.9044 20.2016 27 17.9308 27 15.5515C27 15.1783 26.6978 14.8758 26.325 14.8758Z" fill="#292F48"/>
</svg>
