<svg width="27" height="27" viewBox="0 0 27 27" fill="none" xmlns="http://www.w3.org/2000/svg">
<path fill-rule="evenodd" clip-rule="evenodd" d="M11.5036 0.977504L1.86921 10.1534C0.898747 11.0777 0.285135 12.2875 0.128155 13.586C0.04248 14.2948 0 15.1193 0 16.061C0 17.644 0.12021 19.9035 0.360282 22.8448C0.551698 25.19 2.60561 27 5.07538 27L8.40206 27C9.05321 27 9.40012 26.9362 9.76163 26.7521C10.0996 26.5799 10.3688 26.3235 10.5496 26.0016C10.7429 25.6573 10.8099 25.3269 10.8099 24.7067V17.2488C10.8099 16.5614 10.8595 16.3166 11.0008 16.0651C11.1144 15.8626 11.2772 15.7076 11.4898 15.5993C11.7539 15.4648 12.0108 15.4176 12.7326 15.4176H14.2921C15.0139 15.4176 15.2708 15.4648 15.5349 15.5993C15.7475 15.7076 15.9103 15.8626 16.024 16.0651C16.1652 16.3166 16.2148 16.5614 16.2148 17.2488V24.7067C16.2148 25.3269 16.2818 25.6573 16.4752 26.0016C16.6559 26.3235 16.9251 26.5799 17.2631 26.7521C17.6246 26.9362 17.9715 27 18.6227 27H21.935C24.4107 27 26.4674 25.1817 26.6513 22.8304C26.8837 19.86 27 17.6054 27 16.061C27 15.1076 26.9557 14.2696 26.8665 13.5458C26.707 12.2521 26.0941 11.0474 25.127 10.1263L15.5212 0.977504C14.9637 0.446524 14.62 0.225198 14.1598 0.0923399C13.7333 -0.03078 13.2914 -0.03078 12.8649 0.0923399C12.4047 0.225198 12.0611 0.446524 11.5036 0.977504ZM1.47052 13.7332C1.59262 12.7232 2.06987 11.7823 2.82468 11.0634L12.459 1.88751C12.8723 1.49391 13.0381 1.38709 13.2569 1.32395C13.4278 1.2746 13.5969 1.2746 13.7679 1.32395C13.9866 1.38709 14.1524 1.49391 14.5657 1.88751L24.1716 11.0363C24.9238 11.7527 25.4004 12.6897 25.5245 13.696C25.6071 14.366 25.6488 15.1548 25.6488 16.061C25.6488 17.5671 25.5339 19.7935 25.3038 22.7348C25.1724 24.4143 23.7033 25.7131 21.935 25.7131H18.6227C18.1755 25.7131 18.0393 25.688 17.9003 25.6172C17.7979 25.565 17.7215 25.4923 17.6667 25.3947C17.5924 25.2623 17.5661 25.1326 17.5661 24.7067V17.2488C17.5661 16.3671 17.4758 15.9217 17.2155 15.4582C16.9759 15.0315 16.6202 14.6927 16.1722 14.4645C15.6855 14.2166 15.2179 14.1306 14.2921 14.1306H12.7326C11.8069 14.1306 11.3392 14.2166 10.8525 14.4645C10.4045 14.6927 10.0488 15.0315 9.80922 15.4582C9.54896 15.9217 9.45865 16.3671 9.45865 17.2488V24.7067C9.45865 25.1326 9.43235 25.2623 9.35802 25.3947C9.30322 25.4923 9.22685 25.565 9.12439 25.6172C8.98539 25.688 8.84922 25.7131 8.40206 25.7131L5.07538 25.7131C3.31126 25.7131 1.84418 24.4202 1.70745 22.7451C1.46986 19.8341 1.35124 17.6044 1.35124 16.061C1.35124 15.1655 1.39124 14.3891 1.47052 13.7332Z" fill="#78179A"/>
</svg>
