<svg width="27" height="27" viewBox="0 0 27 27" fill="none" xmlns="http://www.w3.org/2000/svg">
<path fill-rule="evenodd" clip-rule="evenodd" d="M13.5 0C6.04312 0 0 6.04363 0 13.5C0 20.9569 6.04363 27 13.5 27C20.9569 27 27 20.9564 27 13.5C27 6.04312 20.9564 0 13.5 0ZM1.22729 13.5C1.22729 16.5412 2.33307 19.3238 4.16452 21.4677L3.94313 22.5774C3.87683 22.9098 4.0925 23.233 4.42486 23.2993C4.75721 23.3656 5.08038 23.1499 5.14669 22.8175L5.20155 22.5425C7.3862 24.5484 10.3 25.7727 13.5 25.7727C16.7002 25.7727 19.614 24.5483 21.7986 22.5424L21.8535 22.8175C21.9198 23.1499 22.243 23.3656 22.5753 23.2993C22.9077 23.233 23.1233 22.9098 23.057 22.5774L22.8356 21.4675C24.667 19.3236 25.7728 16.5411 25.7728 13.5C25.7728 6.72093 20.2786 1.22725 13.5 1.22725C6.72097 1.22725 1.22729 6.72139 1.22729 13.5ZM22.8356 21.4675C22.5119 21.8465 22.1655 22.2055 21.7986 22.5424L21.3764 20.4258C21.1091 19.0863 19.9885 18.0847 18.6275 17.969C17.2699 17.8535 15.5601 17.7955 13.5001 17.7955C11.4401 17.7955 9.73027 17.8535 8.37271 17.969C7.01166 18.0847 5.89104 19.0863 5.62381 20.4259L5.20155 22.5425C4.8346 22.2056 4.48823 21.8466 4.16452 21.4677L4.42025 20.1858C4.79438 18.3104 6.36324 16.9082 8.26871 16.7461C9.66492 16.6274 11.408 16.5682 13.5001 16.5682C15.5922 16.5682 17.3352 16.6274 18.7315 16.7461C20.6369 16.9081 22.2058 18.3104 22.5799 20.1857L22.8356 21.4675ZM13.5002 4.90901C10.7922 4.90901 8.59106 7.10844 8.59106 9.8181C8.59106 12.526 10.7905 14.7272 13.5002 14.7272C16.2081 14.7272 18.4092 12.5278 18.4092 9.8181C18.4092 7.11015 16.2098 4.90901 13.5002 4.90901ZM9.81812 9.81807C9.81812 11.8484 11.4683 13.4999 13.4999 13.4999C15.5303 13.4999 17.1818 11.8497 17.1818 9.81807C17.1818 7.78772 15.5316 6.13626 13.4999 6.13626C11.4696 6.13626 9.81812 7.78644 9.81812 9.81807Z" fill="#78179A"/>
</svg>
