<svg width="27" height="27" viewBox="0 0 27 27" fill="none" xmlns="http://www.w3.org/2000/svg">
<path fill-rule="evenodd" clip-rule="evenodd" d="M12.1481 0C8.72998 0 5.95985 2.74712 5.95985 6.13636C5.95985 9.52583 8.73021 12.2727 12.1481 12.2727C15.5663 12.2727 18.3364 9.5256 18.3364 6.13636C18.3364 2.74689 15.566 0 12.1481 0ZM7.19751 6.13636C7.19751 8.84801 9.41374 11.0455 12.1481 11.0455C14.8827 11.0455 17.0988 8.84782 17.0988 6.13636C17.0988 3.42472 14.8825 1.22727 12.1481 1.22727C9.41355 1.22727 7.19751 3.4249 7.19751 6.13636ZM12.7736 24.542C13.1154 24.5382 13.3955 24.8098 13.3994 25.1487C13.4032 25.4876 13.1293 25.7654 12.7875 25.7692C12.5762 25.7715 12.363 25.7727 12.1481 25.7727C8.02679 25.7727 4.5575 25.3386 1.73758 24.4652C0.558202 24.0999 -0.168918 22.9282 0.0337896 21.7196L0.555903 18.6066C0.880355 16.6722 2.48485 15.2012 4.45511 15.0319C6.81985 14.8288 9.38411 14.7273 12.1481 14.7273C12.3686 14.7273 12.5878 14.7279 12.8057 14.7292C13.1475 14.7312 13.4229 15.0076 13.4208 15.3465C13.4188 15.6854 13.1401 15.9585 12.7983 15.9565C12.5829 15.9552 12.3661 15.9545 12.1481 15.9545C9.41851 15.9545 6.88969 16.0546 4.56194 16.2546C3.15461 16.3755 2.00854 17.4262 1.77679 18.808L1.25468 21.9209C1.15332 22.5252 1.51688 23.1111 2.10657 23.2938C4.79527 24.1265 8.14334 24.5455 12.1481 24.5455C12.3584 24.5455 12.5669 24.5443 12.7736 24.542ZM14.6235 20.25C14.6235 23.3006 17.1168 25.7727 20.193 25.7727C23.2694 25.7727 25.7624 23.3004 25.7624 20.25C25.7624 17.1994 23.2692 14.7273 20.193 14.7273C17.1166 14.7273 14.6235 17.1996 14.6235 20.25ZM20.1929 13.5C16.4329 13.5 13.3857 16.5218 13.3857 20.25C13.3857 23.9784 16.4331 27 20.1929 27C23.9528 27 27 23.9782 27 20.25C27 16.5216 23.9526 13.5 20.1929 13.5ZM20.8116 19.6364H22.6683C23.4934 19.6364 23.4934 20.8636 22.6683 20.8636H20.8116V19.6364ZM19.574 19.6364V17.7955C19.574 16.9773 20.8116 16.9773 20.8116 17.7955V19.6364H19.574ZM19.574 19.6364V20.8636H17.7177C16.8926 20.8636 16.8926 19.6364 17.7177 19.6364H19.574ZM19.574 20.8636H20.8116V22.7045C20.8116 23.5227 19.574 23.5227 19.574 22.7045V20.8636Z" fill="#292F48"/>
</svg>
