<svg width="27" height="27" viewBox="0 0 27 27" fill="none" xmlns="http://www.w3.org/2000/svg">
<path fill-rule="evenodd" clip-rule="evenodd" d="M16.3058 2.61696C16.2054 1.15488 14.9876 0 13.5 0C12.0121 0 10.7941 1.15538 10.6941 2.6179C10.0047 2.80992 9.47864 2.98251 9.10996 3.13891C8.77513 3.28095 8.33629 3.50754 7.78824 3.82026C6.68339 2.85768 5.00584 2.90228 3.95406 3.95406C2.90208 5.00603 2.85767 6.68402 3.82081 7.78886C3.49063 8.36988 3.2528 8.83479 3.10567 9.18916C2.95958 9.54105 2.79769 10.0409 2.61703 10.6942C1.15492 10.7946 0 12.0124 0 13.5C0 14.9879 1.15542 16.206 2.61798 16.3059C2.81103 16.9985 2.98458 17.5269 3.14191 17.8971C3.28348 18.2302 3.50905 18.6667 3.82021 19.2118C2.85769 20.3167 2.9023 21.9942 3.95406 23.0459C5.00611 24.098 6.68428 24.1423 7.78911 23.179C8.38355 23.5162 8.85906 23.7585 9.22139 23.9076C9.56641 24.0496 10.0555 24.2072 10.6942 24.3833C10.7948 25.8453 12.0125 27 13.5 27C14.9877 27 16.2057 25.8449 16.3058 24.3826C16.9765 24.1964 17.489 24.0294 17.849 23.8784C18.1939 23.7337 18.6463 23.5013 19.2114 23.1795C20.3163 24.1423 21.9941 24.0978 23.0459 23.0459C24.0981 21.9938 24.1423 20.3154 23.1787 19.2106C23.5244 18.6001 23.7721 18.1118 23.9235 17.7399C24.0606 17.4032 24.2131 16.9269 24.3837 16.3058C25.8455 16.205 27 14.9873 27 13.5C27 12.0126 25.8454 10.7949 24.3835 10.6942C24.2099 10.0636 24.0547 9.58031 23.9149 9.23905C23.7647 8.87234 23.5199 8.39101 23.1788 7.78926C24.1423 6.68442 24.098 5.00616 23.0459 3.95406C21.994 2.90207 20.3159 2.85767 19.2111 3.82085C18.6276 3.48935 18.1606 3.25066 17.8048 3.10316C17.4542 2.95784 16.9564 2.79677 16.3058 2.61696ZM11.1697 3.65381C11.5492 3.55043 11.8125 3.20581 11.8125 2.8125C11.8125 1.88052 12.568 1.125 13.5 1.125C14.432 1.125 15.1875 1.88052 15.1875 2.8125C15.1875 3.20619 15.4515 3.55096 15.8316 3.65362C16.5287 3.84193 17.0452 4.00614 17.374 4.14242C17.7088 4.28118 18.1905 4.53061 18.8119 4.88858C19.1537 5.08545 19.5851 5.02844 19.864 4.74955C20.523 4.09054 21.5914 4.09054 22.2504 4.74955C22.9095 5.40856 22.9095 6.47703 22.2504 7.13604C21.9717 7.41482 21.9145 7.8459 22.1109 8.18773C22.4779 8.82622 22.7329 9.3213 22.8738 9.6654C23.0052 9.9863 23.164 10.4894 23.3465 11.1678C23.4488 11.5482 23.7936 11.8125 24.1875 11.8125C25.1195 11.8125 25.875 12.568 25.875 13.5C25.875 14.432 25.1195 15.1875 24.1875 15.1875C23.7935 15.1875 23.4486 15.452 23.3465 15.8325C23.1668 16.5019 23.0107 16.9986 22.8815 17.3157C22.7396 17.6643 22.4819 18.1657 22.1107 18.8125C21.9145 19.1543 21.9717 19.5853 22.2504 19.864C22.9095 20.523 22.9095 21.5914 22.2504 22.2504C21.5914 22.9095 20.523 22.9095 19.864 22.2504C19.5849 21.9714 19.1533 21.9146 18.8115 22.1119C18.2074 22.4608 17.7391 22.7045 17.4138 22.841C17.077 22.9823 16.547 23.152 15.8309 23.3463C15.4512 23.4493 15.1875 23.794 15.1875 24.1875C15.1875 25.1195 14.432 25.875 13.5 25.875C12.568 25.875 11.8125 25.1195 11.8125 24.1875C11.8125 23.7937 11.5483 23.4489 11.168 23.3464C10.4821 23.1616 9.9736 23.0007 9.64951 22.8673C9.30918 22.7272 8.81949 22.4745 8.18786 22.1111C7.84607 21.9145 7.41487 21.9716 7.13604 22.2504C6.47703 22.9095 5.40856 22.9095 4.74955 22.2504C4.09054 21.5914 4.09054 20.523 4.74955 19.864C5.02873 19.5848 5.08534 19.1528 4.88752 18.8111C4.54867 18.2258 4.31122 17.7722 4.17728 17.4571C4.03049 17.1117 3.85461 16.5669 3.65383 15.8302C3.55044 15.4508 3.20581 15.1875 2.8125 15.1875C1.88052 15.1875 1.125 14.432 1.125 13.5C1.125 12.568 1.88052 11.8125 2.8125 11.8125C3.20617 11.8125 3.55094 11.5485 3.65365 11.1685C3.84275 10.4688 4.00772 9.95043 4.14468 9.62053C4.28313 9.28706 4.53179 8.80717 4.88851 8.18813C5.08545 7.84636 5.02847 7.41495 4.74955 7.13604C4.09054 6.47703 4.09054 5.40856 4.74955 4.74955C5.40856 4.09054 6.47703 4.09054 7.13604 4.74955C7.41519 5.02871 7.84713 5.08535 8.18882 4.8876C8.77686 4.54729 9.23265 4.30891 9.5493 4.17458C9.8934 4.02861 10.436 3.85363 11.1697 3.65381ZM13.5 20.25C9.77208 20.25 6.75 17.2279 6.75 13.5C6.75 9.77208 9.77208 6.75 13.5 6.75C17.2279 6.75 20.25 9.77208 20.25 13.5C20.25 17.2279 17.2279 20.25 13.5 20.25ZM19.125 13.5C19.125 16.6066 16.6066 19.125 13.5 19.125C10.3934 19.125 7.875 16.6066 7.875 13.5C7.875 10.3934 10.3934 7.875 13.5 7.875C16.6066 7.875 19.125 10.3934 19.125 13.5Z" fill="#292F48"/>
</svg>
