<svg width="20" height="20" viewBox="0 0 20 20" fill="none" xmlns="http://www.w3.org/2000/svg">
<path fill-rule="evenodd" clip-rule="evenodd" d="M12.8919 13.3762C12.6292 13.3613 12.4041 13.5623 12.3893 13.8251C12.374 14.0949 12.3211 14.7562 12.2309 15.8017C12.1317 16.9514 11.213 17.8667 10.0491 17.9721C9.03643 18.0638 7.93058 18.1098 6.73174 18.1098C5.50906 18.1098 4.38311 18.062 3.35413 17.9666C2.19042 17.8587 1.27375 16.9415 1.17703 15.7916C1.02786 14.018 0.953145 11.9413 0.953145 9.56229C0.953145 7.15015 1.02996 5.03884 1.18333 3.22913C1.28228 2.06157 2.22562 1.13725 3.4093 1.05156C4.31439 0.986035 5.42224 0.953145 6.73174 0.953145C8.01343 0.953145 9.10195 0.984651 9.99629 1.04743C11.1809 1.13058 12.1266 2.05384 12.2273 3.22194C12.3207 4.30545 12.3756 4.99386 12.3916 5.28002C12.4063 5.54281 12.6313 5.74394 12.8941 5.72925C13.1569 5.71456 13.358 5.48962 13.3433 5.22682C13.3266 4.92732 13.2712 4.23412 13.1769 3.14006C13.0357 1.50285 11.714 0.212516 10.063 0.0966244C9.14426 0.0321303 8.03417 0 6.73174 0C5.40088 0 4.27083 0.0335484 3.34048 0.1009C1.69071 0.220335 0.372277 1.51217 0.233589 3.14864C0.0777745 4.98722 0 7.12486 0 9.56229C0 11.9663 0.0756579 14.0691 0.227242 15.8715C0.362799 17.4832 1.64408 18.7653 3.26615 18.9157C4.32567 19.0139 5.48079 19.0629 6.73174 19.0629C7.95823 19.0629 9.09258 19.0158 10.135 18.9214C11.7574 18.7744 13.0414 17.4951 13.1805 15.8836C13.2716 14.8277 13.3249 14.1618 13.3409 13.8788C13.3557 13.616 13.1547 13.391 12.8919 13.3762ZM18.8372 9.02726C18.8462 9.03626 18.8549 9.04544 18.8633 9.05479H7.14759C6.88439 9.05479 6.67102 9.26816 6.67102 9.53136C6.67102 9.79457 6.88439 10.0079 7.14759 10.0079H18.8645C18.8555 10.018 18.8461 10.028 18.8364 10.0377L15.389 13.4834C15.2028 13.6695 15.2028 13.9713 15.3888 14.1574C15.5749 14.3436 15.8767 14.3437 16.0628 14.1576L19.5102 10.7118C20.1613 10.0611 20.1621 9.00594 19.5121 8.35419L16.0728 4.90567C15.8869 4.71931 15.5851 4.71891 15.3988 4.90477C15.2124 5.09064 15.212 5.39238 15.3979 5.57875L18.8372 9.02726Z" fill="#FF0000"/>
</svg>
