<svg width="27" height="27" viewBox="0 0 27 27" fill="none" xmlns="http://www.w3.org/2000/svg">
<path fill-rule="evenodd" clip-rule="evenodd" d="M26.1318 24.3698C26.3612 24.981 26.2627 25.6625 25.8687 26.1892C25.2128 27.0662 23.9467 27.2623 23.0409 26.6273L20.0262 24.5137C18.0469 25.574 15.8155 26.1398 13.5 26.1398C6.04416 26.1398 0 20.2882 0 13.0699C0 5.85159 6.04416 0 13.5 0C20.9558 0 27 5.85159 27 13.0699C27 15.736 26.1728 18.283 24.6545 20.4342L26.1318 24.3698ZM23.2656 20.5604C23.1892 20.3568 23.2219 20.1298 23.353 19.9543C24.8383 17.9655 25.6501 15.5778 25.6501 13.0699C25.6501 6.57342 20.2104 1.30699 13.5001 1.30699C6.78984 1.30699 1.3501 6.57342 1.3501 13.0699C1.3501 19.5664 6.78984 24.8328 13.5001 24.8328C15.7228 24.8328 17.8565 24.2547 19.7223 23.1755C19.9539 23.0415 20.2458 23.0539 20.4644 23.2072L23.8328 25.5687C24.1347 25.7803 24.5567 25.715 24.7754 25.4227C24.9067 25.2471 24.9395 25.0199 24.8631 24.8162L23.2656 20.5604ZM9.05459 12.1457C8.52739 11.6353 7.67261 11.6353 7.14541 12.1457C6.6182 12.6561 6.6182 13.4837 7.14541 13.9941C7.67261 14.5045 8.52739 14.5045 9.05459 13.9941C9.5818 13.4837 9.5818 12.6561 9.05459 12.1457ZM17.9455 12.1457C18.4727 11.6353 19.3274 11.6353 19.8546 12.1457C20.3819 12.6561 20.3819 13.4837 19.8546 13.9941C19.3274 14.5045 18.4727 14.5045 17.9455 13.9941C17.4182 13.4837 17.4182 12.6561 17.9455 12.1457ZM14.4545 12.1457C13.9273 11.6353 13.0725 11.6353 12.5453 12.1457C12.0181 12.6561 12.0181 13.4837 12.5453 13.9941C13.0725 14.5045 13.9273 14.5045 14.4545 13.9941C14.9817 13.4837 14.9817 12.6561 14.4545 12.1457Z" fill="#292F48"/>
</svg>
