<svg width="27" height="27" viewBox="0 0 27 27" fill="none" xmlns="http://www.w3.org/2000/svg">
<path fill-rule="evenodd" clip-rule="evenodd" d="M18.6429 13.6744C18.6429 17.5346 18.8201 21.4217 19.1746 25.3356L17.914 24.3682C17.2113 23.8289 16.2168 23.8294 15.5147 24.3693L13.8857 25.6218C13.6504 25.8027 13.3168 25.8018 13.0825 25.6195L11.4932 24.3827C10.7883 23.8343 9.78397 23.8333 9.07797 24.3803L7.47754 25.6203C7.24291 25.8021 6.9093 25.8024 6.67436 25.621L5.15676 24.4491C4.38937 23.8565 3.28398 23.9162 2.58954 24.5876L1.82512 25.3267C1.46542 20.412 1.28571 16.5252 1.28571 13.6698C1.28571 9.6739 1.56954 5.87548 1.91992 3.831C2.17275 2.35578 3.22161 1.24313 4.5 1.24313H20.152C19.5155 1.89181 19.1012 2.74922 19.0316 3.705C18.7725 7.26367 18.6429 10.5867 18.6429 13.6744ZM23.1429 1.24313C21.654 1.24313 20.4188 2.35637 20.3142 3.79231C20.0571 7.3229 19.9286 10.617 19.9286 13.6744C19.9286 17.4982 20.1042 21.3491 20.4555 25.2271C20.5175 25.9111 19.9942 26.5141 19.2868 26.574C18.9592 26.6018 18.633 26.507 18.3753 26.3093L17.1147 25.3419C16.8805 25.1621 16.549 25.1623 16.3149 25.3422L14.686 26.5948C13.98 27.1376 12.9791 27.1348 12.2764 26.588L10.687 25.3512C10.4521 25.1684 10.1173 25.168 9.88198 25.3504L8.28155 26.5904C7.57767 27.1358 6.57683 27.1366 5.87201 26.5924L4.35442 25.4205C4.09862 25.223 3.73015 25.2428 3.49867 25.4666L2.73426 26.2057C2.23215 26.6912 1.41808 26.6912 0.915981 26.2057C0.697043 25.9941 0.564466 25.7131 0.542611 25.4145C0.180961 20.473 0 16.5592 0 13.6698C0 9.60939 0.28883 5.74397 0.651505 3.62778C0.99785 1.60688 2.51261 0 4.5 0H23.1429L23.1449 3.18312e-06C25.2742 0.00109041 27 1.67038 27 3.72939V8.08034C27 9.11018 26.1365 9.94504 25.0714 9.94504H22.5C22.145 9.94504 21.8571 9.66675 21.8571 9.32347C21.8571 8.98019 22.145 8.70191 22.5 8.70191H25.0714C25.4265 8.70191 25.7143 8.42362 25.7143 8.08034V3.72939C25.7143 2.35627 24.563 1.24313 23.1429 1.24313ZM4.50003 8.70198C4.14499 8.70198 3.85718 8.4237 3.85718 8.08042C3.85718 7.73714 4.14499 7.45885 4.50003 7.45885H10.9277C11.2827 7.45885 11.5706 7.73714 11.5706 8.08042C11.5706 8.4237 11.2827 8.70198 10.9277 8.70198H4.50003ZM12.8572 8.08042C12.8572 8.4237 13.145 8.70198 13.5 8.70198H16.0706C16.4256 8.70198 16.7134 8.4237 16.7134 8.08042C16.7134 7.73714 16.4256 7.45885 16.0706 7.45885H13.5C13.145 7.45885 12.8572 7.73714 12.8572 8.08042ZM4.50003 12.4313C4.14499 12.4313 3.85718 12.153 3.85718 11.8097C3.85718 11.4664 4.14499 11.1882 4.50003 11.1882H10.9277C11.2827 11.1882 11.5706 11.4664 11.5706 11.8097C11.5706 12.153 11.2827 12.4313 10.9277 12.4313H4.50003ZM12.8572 11.8097C12.8572 12.153 13.145 12.4313 13.5 12.4313H16.0706C16.4256 12.4313 16.7134 12.153 16.7134 11.8097C16.7134 11.4664 16.4256 11.1882 16.0706 11.1882H13.5C13.145 11.1882 12.8572 11.4664 12.8572 11.8097ZM4.50003 16.1606C4.14499 16.1606 3.85718 15.8823 3.85718 15.539C3.85718 15.1958 4.14499 14.9175 4.50003 14.9175H10.9277C11.2827 14.9175 11.5706 15.1958 11.5706 15.539C11.5706 15.8823 11.2827 16.1606 10.9277 16.1606H4.50003ZM12.8572 15.539C12.8572 15.8823 13.145 16.1606 13.5 16.1606H16.0706C16.4256 16.1606 16.7134 15.8823 16.7134 15.539C16.7134 15.1958 16.4256 14.9175 16.0706 14.9175H13.5C13.145 14.9175 12.8572 15.1958 12.8572 15.539ZM4.50003 19.8901C4.14499 19.8901 3.85718 19.6119 3.85718 19.2686C3.85718 18.9253 4.14499 18.647 4.50003 18.647H10.9277C11.2827 18.647 11.5706 18.9253 11.5706 19.2686C11.5706 19.6119 11.2827 19.8901 10.9277 19.8901H4.50003ZM12.8572 19.2686C12.8572 19.6119 13.145 19.8901 13.5 19.8901H16.0706C16.4256 19.8901 16.7134 19.6119 16.7134 19.2686C16.7134 18.9253 16.4256 18.647 16.0706 18.647H13.5C13.145 18.647 12.8572 18.9253 12.8572 19.2686Z" fill="#78179A"/>
</svg>
